<svg xmlns="http://www.w3.org/2000/svg" viewBox="0 0 1400 900">
  <rect width="1400" height="900" fill="#1c2636"/>
  <defs>
    <pattern id="g" width="64" height="64" patternUnits="userSpaceOnUse">
      <path d="M64 0H0V64" fill="none" stroke="rgba(218,225,227,0.04)" stroke-width="1"/>
    </pattern>
  </defs>
  <rect width="1400" height="900" fill="url(#g)"/>
  <line x1="0" y1="0" x2="1400" y2="900" stroke="rgba(42,122,140,0.05)" stroke-width="1"/>
  <line x1="1400" y1="0" x2="0" y2="900" stroke="rgba(42,122,140,0.05)" stroke-width="1"/>
  <rect x="24" y="24" width="1352" height="852" fill="none" stroke="rgba(42,122,140,0.12)" stroke-width="1"/>
  <path d="M24 64 L24 24 64 24" fill="none" stroke="rgba(42,122,140,0.5)" stroke-width="2"/>
  <path d="M1336 24 L1376 24 1376 64" fill="none" stroke="rgba(42,122,140,0.5)" stroke-width="2"/>
  <path d="M24 836 L24 876 64 876" fill="none" stroke="rgba(42,122,140,0.5)" stroke-width="2"/>
  <path d="M1336 876 L1376 876 1376 836" fill="none" stroke="rgba(42,122,140,0.5)" stroke-width="2"/>
  <circle cx="700" cy="450" r="44" fill="none" stroke="rgba(42,122,140,0.25)" stroke-width="1"/>
  <line x1="630" y1="450" x2="770" y2="450" stroke="rgba(42,122,140,0.22)" stroke-width="1"/>
  <line x1="700" y1="380" x2="700" y2="520" stroke="rgba(42,122,140,0.22)" stroke-width="1"/>
  <text x="700" y="416" font-family="Inter,Arial,sans-serif" font-size="18" fill="rgba(159,165,166,0.5)" text-anchor="middle" letter-spacing="4">HERO 主視覺</text>
  <text x="700" y="462" font-family="Inter,Arial,sans-serif" font-size="26" fill="rgba(42,122,140,0.9)" text-anchor="middle" font-weight="300" letter-spacing="2">1400 × 900 px</text>
  <text x="700" y="492" font-family="Inter,Arial,sans-serif" font-size="13" fill="rgba(159,165,166,0.3)" text-anchor="middle">替換路徑：images/hero/main.jpg</text>
</svg>
