<svg xmlns="http://www.w3.org/2000/svg" viewBox="0 0 800 600">
  <rect width="800" height="600" fill="#1c2636"/>
  <defs>
    <pattern id="g" width="48" height="48" patternUnits="userSpaceOnUse">
      <path d="M48 0H0V48" fill="none" stroke="rgba(218,225,227,0.04)" stroke-width="1"/>
    </pattern>
  </defs>
  <rect width="800" height="600" fill="url(#g)"/>
  <line x1="0" y1="0" x2="800" y2="600" stroke="rgba(42,122,140,0.05)" stroke-width="1"/>
  <line x1="800" y1="0" x2="0" y2="600" stroke="rgba(42,122,140,0.05)" stroke-width="1"/>
  <rect x="20" y="20" width="760" height="560" fill="none" stroke="rgba(42,122,140,0.12)" stroke-width="1"/>
  <path d="M20 52 L20 20 52 20" fill="none" stroke="rgba(42,122,140,0.5)" stroke-width="2"/>
  <path d="M748 20 L780 20 780 52" fill="none" stroke="rgba(42,122,140,0.5)" stroke-width="2"/>
  <path d="M20 548 L20 580 52 580" fill="none" stroke="rgba(42,122,140,0.5)" stroke-width="2"/>
  <path d="M748 580 L780 580 780 548" fill="none" stroke="rgba(42,122,140,0.5)" stroke-width="2"/>
  <circle cx="400" cy="300" r="36" fill="none" stroke="rgba(42,122,140,0.25)" stroke-width="1"/>
  <line x1="340" y1="300" x2="460" y2="300" stroke="rgba(42,122,140,0.22)" stroke-width="1"/>
  <line x1="400" y1="240" x2="400" y2="360" stroke="rgba(42,122,140,0.22)" stroke-width="1"/>
  <text x="400" y="270" font-family="Inter,Arial,sans-serif" font-size="12" fill="rgba(159,165,166,0.5)" text-anchor="middle" letter-spacing="2">半導體周邊材料</text>
  <text x="400" y="310" font-family="Inter,Arial,sans-serif" font-size="20" fill="rgba(42,122,140,0.9)" text-anchor="middle" font-weight="300" letter-spacing="2">800 × 600 px</text>
  <text x="400" y="336" font-family="Inter,Arial,sans-serif" font-size="10" fill="rgba(159,165,166,0.3)" text-anchor="middle">替換路徑：images/products/semiconductor/product.jpg</text>
</svg>
